<?xml version="1.0" encoding="utf-8"?>
<!-- Generator: Adobe Illustrator 15.1.0, SVG Export Plug-In . SVG Version: 6.00 Build 0)  -->
<!DOCTYPE svg PUBLIC "-//W3C//DTD SVG 1.1//EN" "http://www.w3.org/Graphics/SVG/1.1/DTD/svg11.dtd">
<svg version="1.1" id="Layer_1" xmlns="http://www.w3.org/2000/svg" xmlns:xlink="http://www.w3.org/1999/xlink" x="0px" y="0px"
	 width="205px" height="126px" viewBox="295.5 243 205 126" enable-background="new 295.5 243 205 126" xml:space="preserve">
<g>
	<path fill="#FFFFFF" d="M437.971,368.055c-34.479,0-62.527-28.049-62.527-62.525c0-34.479,28.048-62.529,62.527-62.529
		c34.478,0,62.529,28.051,62.529,62.529C500.5,340.006,472.449,368.055,437.971,368.055z M437.971,267.711
		c-20.852,0-37.815,16.964-37.815,37.817c0,20.851,16.965,37.813,37.815,37.813c20.854,0,37.817-16.963,37.817-37.813
		C475.788,284.675,458.824,267.711,437.971,267.711z"/>
</g>
<g>
	<path fill="#6AC9CA" d="M437.971,262.581c23.682,0,42.946,19.266,42.946,42.947c0,23.679-19.266,42.942-42.946,42.942
		c-23.68,0-42.944-19.266-42.944-42.942C395.026,281.847,414.291,262.581,437.971,262.581 M437.971,259.253
		c-25.515,0-46.273,20.759-46.273,46.276c0,25.516,20.759,46.271,46.273,46.271c25.516,0,46.274-20.758,46.274-46.271
		C484.245,280.012,463.486,259.253,437.971,259.253L437.971,259.253z"/>
</g>
<line fill="none" stroke="#FFFFFF" stroke-width="3" stroke-miterlimit="10" x1="440.803" y1="317.729" x2="415.888" y2="283.887"/>
<line fill="none" stroke="#FFFFFF" stroke-width="2.7365" stroke-miterlimit="10" x1="433.278" y1="314.311" x2="464.918" y2="306.783"/>
<g enable-background="new    ">
	<path fill="#FFFFFF" d="M362.598,362.551h-31.091V302.54c0-7.288,0.155-13.956,0.465-20.004c-1.913,2.326-4.291,4.756-7.133,7.288
		l-12.871,10.622l-15.895-19.538l38.922-31.712h27.603V362.551z"/>
</g>
<line fill="none" stroke="#6AC9CA" stroke-width="3.3286" stroke-miterlimit="10" x1="355.863" y1="253.335" x2="355.863" y2="359.586"/>
</svg>
