<?xml version="1.0" encoding="utf-8"?>
<!-- Generator: Adobe Illustrator 16.2.1, SVG Export Plug-In . SVG Version: 6.00 Build 0)  -->
<!DOCTYPE svg PUBLIC "-//W3C//DTD SVG 1.1//EN" "http://www.w3.org/Graphics/SVG/1.1/DTD/svg11.dtd">
<svg version="1.1" id="Layer_1" xmlns="http://www.w3.org/2000/svg" xmlns:xlink="http://www.w3.org/1999/xlink" x="0px" y="0px"
	 width="147.777px" height="60.567px" viewBox="321.654 275.743 147.777 60.567"
	 enable-background="new 321.654 275.743 147.777 60.567" xml:space="preserve">
<g>
	<g>
		<path fill="#BDA8A0" d="M333.507,304.242h-0.6l-1.452,6.917h0.583c0.619,0,1.172-0.198,1.659-0.593
			c0.486-0.395,0.865-0.955,1.136-1.685c0.27-0.729,0.405-1.562,0.405-2.496c0-0.703-0.152-1.237-0.456-1.6
			C334.479,304.423,334.054,304.242,333.507,304.242z"/>
		<path fill="#BDA8A0" d="M345.087,304.072h-0.448l-0.59,2.821h0.432c0.534,0,0.959-0.153,1.274-0.46
			c0.316-0.307,0.473-0.735,0.473-1.288c0-0.349-0.097-0.614-0.292-0.797C345.741,304.164,345.458,304.072,345.087,304.072z"/>
		<path fill="#BDA8A0" d="M351.995,276.323c-16.411,0-29.714,13.303-29.714,29.713c0,16.409,13.303,29.713,29.714,29.713
			s29.714-13.304,29.714-29.713C381.709,289.626,368.406,276.323,351.995,276.323z M337.738,310.316
			c-0.559,1.156-1.367,2.043-2.429,2.656c-1.062,0.612-2.318,0.92-3.771,0.92h-3.979l2.609-12.346h3.513
			c1.555,0,2.758,0.407,3.61,1.221c0.854,0.813,1.279,1.963,1.279,3.45C338.574,307.793,338.295,309.16,337.738,310.316z
			 M349.039,313.082l0.337,0.811h-3.597l-1.647-4.492h-0.617l-0.954,4.492h-3.302l2.609-12.345h3.268
			c1.418,0,2.505,0.282,3.259,0.845c0.755,0.563,1.132,1.41,1.132,2.542c0,0.878-0.2,1.644-0.601,2.297
			c-0.398,0.653-0.993,1.15-1.781,1.494L349.039,313.082z M353.842,313.893h-3.353l2.608-12.345h3.354L353.842,313.893z
			 M358.476,313.893l-0.879-12.345h3.228l0.228,6.763v0.433c0,0.812-0.045,1.53-0.135,2.161h0.067
			c0.078-0.36,0.203-0.805,0.376-1.329c0.171-0.527,0.327-0.937,0.468-1.229l2.956-6.798h3.496l-6.123,12.345H358.476z
			 M375.77,306.167l-0.607,2.677h-3.75l-0.481,2.33h4.028l-0.574,2.719h-7.33l2.609-12.345h7.33l-0.549,2.677h-4.028l-0.397,1.942
			H375.77L375.77,306.167z"/>
	</g>
	<path fill="#BDA8A0" d="M386.562,313.893h-3.336v-9.617h-3.015v-2.728h9.356v2.728h-3.008v9.617H386.562z"/>
	<path fill="#BDA8A0" d="M402.681,307.703c0,2.078-0.51,3.656-1.527,4.738c-1.021,1.08-2.513,1.621-4.477,1.621
		c-1.937,0-3.421-0.545-4.454-1.631s-1.55-2.668-1.55-4.746c0-2.054,0.513-3.624,1.541-4.708c1.027-1.083,2.521-1.625,4.48-1.625
		c1.965,0,3.452,0.538,4.467,1.613C402.175,304.041,402.681,305.621,402.681,307.703z M394.185,307.703
		c0,2.387,0.831,3.581,2.491,3.581c0.844,0,1.471-0.29,1.878-0.87c0.408-0.58,0.613-1.482,0.613-2.711
		c0-1.232-0.207-2.143-0.621-2.731c-0.414-0.589-1.031-0.883-1.854-0.883C395.021,304.089,394.185,305.294,394.185,307.703z"/>
	<path fill="#BDA8A0" d="M413.304,304.106c-0.794,0-1.413,0.325-1.857,0.975c-0.443,0.65-0.666,1.547-0.666,2.69
		c0,2.375,0.902,3.562,2.711,3.562c0.545,0,1.074-0.076,1.587-0.228c0.513-0.152,1.027-0.336,1.546-0.549v2.818
		c-1.031,0.457-2.196,0.686-3.496,0.686c-1.863,0-3.293-0.541-4.286-1.621c-0.993-1.082-1.49-2.643-1.49-4.688
		c0-1.278,0.24-2.401,0.723-3.369c0.48-0.969,1.174-1.713,2.078-2.233c0.902-0.521,1.966-0.781,3.188-0.781
		c1.334,0,2.609,0.29,3.825,0.87l-1.022,2.627c-0.455-0.215-0.911-0.395-1.366-0.542
		C414.316,304.179,413.828,304.106,413.304,304.106z"/>
	<path fill="#BDA8A0" d="M422.193,309.4v4.492h-3.336v-12.346h4.045c3.354,0,5.032,1.216,5.032,3.648
		c0,1.43-0.698,2.536-2.095,3.321l3.6,5.377h-3.783l-2.618-4.492H422.193L422.193,309.4z M422.193,306.893h0.625
		c1.166,0,1.748-0.516,1.748-1.545c0-0.85-0.572-1.275-1.716-1.275h-0.657V306.893z"/>
	<path fill="#BDA8A0" d="M438.057,313.893h-7.33v-12.345h7.33v2.677h-3.993v1.942h3.696v2.677h-3.696v2.33h3.993V313.893z"/>
	<path fill="#BDA8A0" d="M448.11,313.893l-0.608-2.312h-4.01l-0.625,2.312h-3.666l4.027-12.395h4.45l4.079,12.395H448.11z
		 M446.811,308.844l-0.532-2.027c-0.123-0.449-0.273-1.032-0.451-1.748c-0.178-0.715-0.294-1.227-0.351-1.537
		c-0.052,0.287-0.15,0.76-0.301,1.418c-0.147,0.659-0.479,1.957-0.992,3.893L446.811,308.844L446.811,308.844z"/>
	<path fill="#BDA8A0" d="M457.5,313.893h-3.336v-9.617h-3.014v-2.728h9.354v2.728H457.5V313.893z"/>
	<path fill="#BDA8A0" d="M469.432,313.893h-7.33v-12.345h7.33v2.677h-3.993v1.942h3.697v2.677h-3.697v2.33h3.993V313.893z"/>
</g>
</svg>
