<?xml version="1.0" encoding="utf-8"?>
<!-- Generator: Adobe Illustrator 16.2.1, SVG Export Plug-In . SVG Version: 6.00 Build 0)  -->
<!DOCTYPE svg PUBLIC "-//W3C//DTD SVG 1.1//EN" "http://www.w3.org/Graphics/SVG/1.1/DTD/svg11.dtd">
<svg version="1.1" id="Layer_1" xmlns="http://www.w3.org/2000/svg" xmlns:xlink="http://www.w3.org/1999/xlink" x="0px" y="0px"
	 width="1212px" height="444px" viewBox="43.468 150.5 1212 444" enable-background="new 43.468 150.5 1212 444"
	 xml:space="preserve">
<g>
	
		<rect x="258.455" y="340.114" transform="matrix(-0.754 -0.6569 0.6569 -0.754 404.564 831.9943)" fill="#902548" width="199.247" height="0.251"/>
</g>
<g>
	
		<rect x="125.41" y="180" transform="matrix(-0.3949 -0.9187 0.9187 -0.3949 -46.217 451.3512)" fill="#902548" width="0.25" height="121.792"/>
</g>
<g>
	
		<rect x="349.149" y="163.38" transform="matrix(-0.475 -0.88 0.88 -0.475 305.0227 659.6365)" fill="#902548" width="0.251" height="150.907"/>
</g>
<g>
	
		<rect x="331.228" y="219.061" transform="matrix(-0.4894 -0.872 0.872 -0.4894 200.8368 788.8665)" fill="#902548" width="0.251" height="233.157"/>
</g>
<g>
	
		<rect x="349.162" y="244.442" transform="matrix(-0.711 -0.7032 0.7032 -0.711 341.8421 867.9994)" fill="#902548" width="0.25" height="238.625"/>
</g>
<g>
	
		<rect x="460.265" y="309.791" transform="matrix(-0.8502 -0.5265 0.5265 -0.8502 661.4265 911.4219)" fill="#902548" width="0.25" height="103.624"/>
</g>
<g>
	
		<rect x="527.697" y="215.241" transform="matrix(-0.9852 -0.1713 0.1713 -0.9852 992.0885 736.3804)" fill="#902548" width="0.251" height="220.272"/>
</g>
<g>
	
		<rect x="562.614" y="248.978" transform="matrix(-0.8445 -0.5356 0.5356 -0.8445 850.8488 945.7313)" fill="#902548" width="0.25" height="200.699"/>
</g>
<g>
	
		<rect x="470.145" y="80.188" transform="matrix(-0.2535 -0.9673 0.9673 -0.2535 271.1536 867.4402)" fill="#902548" width="0.25" height="497.82"/>
</g>
<g>
	
		<rect x="604.734" y="308.946" transform="matrix(-0.8588 -0.5124 0.5124 -0.8588 1125.9238 928.5107)" fill="#902548" width="172.404" height="0.251"/>
</g>
<g>
	
		<rect x="432.953" y="284.058" transform="matrix(-0.9968 -0.0797 0.0797 -0.9968 973.4409 607.222)" fill="#902548" width="131.772" height="0.251"/>
</g>
<g>
	
		<rect x="414.929" y="110.65" transform="matrix(-0.2149 -0.9766 0.9766 -0.2149 264.1296 704.0289)" fill="#902548" width="0.25" height="270.392"/>
</g>
<g>
	
		<rect x="340.361" y="181.736" transform="matrix(-0.853 -0.5219 0.5219 -0.853 460.8932 781.3559)" fill="#902548" width="0.251" height="288.067"/>
</g>
<g>
	
		<rect x="114.524" y="304.521" transform="matrix(-0.2638 -0.9646 0.9646 -0.2638 -34.1707 583.212)" fill="#902548" width="181.913" height="0.251"/>
</g>
<g>
	<polygon fill="#902548" points="931.311,383.174 931.28,382.925 1089.331,362.984 913.125,213.322 891.489,276.842 
		891.399,276.841 801.891,275.84 765.073,353.248 764.846,353.141 801.735,275.588 801.812,275.589 891.311,276.591 
		913.006,212.895 913.146,213.013 1089.924,363.163 1089.643,363.198 	"/>
</g>
<g>
	
		<rect x="616.766" y="145.575" transform="matrix(-0.333 -0.9429 0.9429 -0.333 501.2608 1035.5825)" fill="#902548" width="0.252" height="389.865"/>
</g>
<g>
	<polygon fill="#902548" points="1089.709,363.329 1089.547,363.141 1223.586,248.404 891.411,276.841 891.389,276.591 
		1224.338,248.09 1224.043,248.341 	"/>
</g>
<g>
	<path fill="#902548" d="M78.203,244.151c-0.446-2.779-2.188-5.123-4.596-6.384c1.816-1.28,3.006-3.39,3.006-5.78
		c0-3.905-3.166-7.071-7.071-7.071s-7.071,3.166-7.071,7.071c0,2.391,1.189,4.5,3.006,5.78c-2.406,1.26-4.148,3.602-4.595,6.38
		c-0.283,1.215-0.454,2.758-0.454,4.441c0,3.905,0.914,7.071,2.043,7.071c0.316,0,0.615-0.257,0.883-0.702
		c2.591,5.425,6.188,9.91,6.188,9.91s3.598-4.485,6.188-9.91c0.268,0.445,0.566,0.702,0.884,0.702c1.128,0,2.043-3.166,2.043-7.071
		C78.656,246.907,78.486,245.365,78.203,244.151z"/>
</g>
<g>
	<path fill="#902548" d="M190.161,196.202c-0.446-2.779-2.188-5.123-4.596-6.383c1.817-1.281,3.006-3.391,3.006-5.781
		c0-3.906-3.166-7.072-7.071-7.072s-7.071,3.166-7.071,7.072c0,2.391,1.189,4.5,3.006,5.781c-2.406,1.259-4.148,3.601-4.595,6.379
		c-0.283,1.215-0.454,2.758-0.454,4.441c0,3.905,0.914,7.071,2.043,7.071c0.316,0,0.615-0.257,0.883-0.703
		c2.591,5.427,6.188,9.91,6.188,9.91s3.598-4.483,6.188-9.91c0.268,0.446,0.566,0.703,0.884,0.703c1.128,0,2.043-3.166,2.043-7.071
		C190.614,198.958,190.444,197.416,190.161,196.202z"/>
</g>
<g>
	<path fill="#902548" d="M424.283,182.142c-0.446-2.778-2.188-5.123-4.597-6.384c1.816-1.28,3.007-3.39,3.007-5.78
		c0-3.904-3.166-7.07-7.071-7.07s-7.071,3.166-7.071,7.07c0,2.391,1.189,4.5,3.006,5.78c-2.405,1.26-4.147,3.602-4.595,6.38
		c-0.283,1.215-0.454,2.758-0.454,4.442c0,3.904,0.914,7.07,2.043,7.07c0.316,0,0.615-0.257,0.883-0.702
		c2.591,5.425,6.188,9.91,6.188,9.91s3.598-4.484,6.188-9.91c0.269,0.445,0.566,0.702,0.885,0.702c1.128,0,2.043-3.166,2.043-7.07
		C424.736,184.898,424.566,183.355,424.283,182.142z"/>
</g>
<g>
	<path fill="#902548" d="M274.057,427.87c-0.446-2.779-2.188-5.123-4.596-6.383c1.816-1.281,3.006-3.392,3.006-5.781
		c0-3.906-3.166-7.072-7.071-7.072s-7.071,3.166-7.071,7.072c0,2.391,1.189,4.5,3.006,5.781c-2.406,1.259-4.148,3.601-4.595,6.379
		c-0.283,1.215-0.454,2.758-0.454,4.44c0,3.905,0.914,7.071,2.043,7.071c0.316,0,0.615-0.257,0.883-0.703
		c2.591,5.427,6.188,9.91,6.188,9.91s3.598-4.483,6.188-9.91c0.268,0.446,0.566,0.703,0.884,0.703c1.128,0,2.043-3.166,2.043-7.071
		C274.51,430.626,274.34,429.085,274.057,427.87z"/>
</g>
<g>
	<path fill="#902548" d="M441.848,258.064c-0.445-2.779-2.188-5.123-4.596-6.384c1.816-1.28,3.006-3.39,3.006-5.78
		c0-3.905-3.166-7.071-7.071-7.071c-3.904,0-7.07,3.166-7.07,7.071c0,2.391,1.188,4.5,3.006,5.78
		c-2.406,1.26-4.148,3.602-4.595,6.38c-0.283,1.215-0.454,2.759-0.454,4.441c0,3.905,0.914,7.071,2.043,7.071
		c0.315,0,0.614-0.257,0.883-0.702c2.591,5.425,6.188,9.909,6.188,9.909s3.599-4.483,6.188-9.909
		c0.268,0.445,0.566,0.702,0.884,0.702c1.128,0,2.043-3.166,2.043-7.071C442.301,260.82,442.131,259.278,441.848,258.064z"/>
</g>
<g>
	<path fill="#902548" d="M555.757,196.202c-0.446-2.779-2.188-5.123-4.596-6.383c1.815-1.281,3.006-3.391,3.006-5.781
		c0-3.906-3.166-7.072-7.071-7.072s-7.071,3.166-7.071,7.072c0,2.391,1.189,4.5,3.006,5.781c-2.406,1.259-4.148,3.601-4.596,6.379
		c-0.282,1.215-0.454,2.758-0.454,4.441c0,3.905,0.914,7.071,2.043,7.071c0.316,0,0.615-0.257,0.883-0.703
		c2.591,5.427,6.188,9.91,6.188,9.91s3.599-4.483,6.188-9.91c0.268,0.446,0.565,0.703,0.884,0.703c1.128,0,2.043-3.166,2.043-7.071
		C556.21,198.958,556.04,197.416,555.757,196.202z"/>
</g>
<g>
	<path fill="#902548" d="M573.203,268.698c-0.446-2.779-2.188-5.122-4.596-6.384c1.815-1.28,3.006-3.391,3.006-5.78
		c0-3.905-3.166-7.071-7.071-7.071s-7.071,3.166-7.071,7.071c0,2.39,1.189,4.5,3.006,5.78c-2.405,1.26-4.147,3.602-4.595,6.381
		c-0.283,1.214-0.454,2.757-0.454,4.44c0,3.905,0.914,7.071,2.043,7.071c0.316,0,0.615-0.257,0.884-0.702
		c2.591,5.425,6.188,9.909,6.188,9.909s3.598-4.483,6.188-9.909c0.268,0.445,0.565,0.702,0.884,0.702
		c1.128,0,2.043-3.166,2.043-7.071C573.656,271.454,573.486,269.912,573.203,268.698z"/>
</g>
<g>
	<path fill="#902548" d="M496.309,296.8c-0.445-2.779-2.188-5.124-4.596-6.384c1.816-1.28,3.006-3.389,3.006-5.78
		c0-3.905-3.166-7.071-7.07-7.071c-3.905,0-7.071,3.166-7.071,7.071c0,2.392,1.188,4.5,3.006,5.78
		c-2.406,1.259-4.148,3.603-4.595,6.38c-0.283,1.214-0.454,2.758-0.454,4.441c0,3.905,0.914,7.072,2.043,7.072
		c0.315,0,0.615-0.258,0.883-0.703c2.591,5.426,6.188,9.91,6.188,9.91s3.598-4.483,6.188-9.91c0.268,0.445,0.566,0.703,0.884,0.703
		c1.128,0,2.043-3.167,2.043-7.072C496.762,299.556,496.592,298.014,496.309,296.8z"/>
</g>
<g>
	<path fill="#902548" d="M441.848,384.958c-0.445-2.778-2.188-5.123-4.596-6.384c1.816-1.28,3.006-3.391,3.006-5.78
		c0-3.905-3.166-7.071-7.071-7.071c-3.904,0-7.07,3.166-7.07,7.071c0,2.392,1.188,4.5,3.006,5.78
		c-2.406,1.26-4.148,3.601-4.595,6.38c-0.283,1.215-0.454,2.758-0.454,4.44c0,3.904,0.914,7.07,2.043,7.07
		c0.315,0,0.614-0.256,0.883-0.701c2.591,5.426,6.188,9.909,6.188,9.909s3.599-4.482,6.188-9.909
		c0.268,0.445,0.566,0.701,0.884,0.701c1.128,0,2.043-3.166,2.043-7.07C442.301,387.714,442.131,386.172,441.848,384.958z"/>
</g>
<g>
	<path fill="#902548" d="M517.183,413.06c-0.445-2.778-2.188-5.122-4.596-6.385c1.816-1.278,3.006-3.389,3.006-5.778
		c0-3.905-3.166-7.071-7.072-7.071c-3.904,0-7.07,3.166-7.07,7.071c0,2.391,1.188,4.5,3.006,5.778
		c-2.406,1.261-4.148,3.604-4.595,6.381c-0.283,1.216-0.454,2.759-0.454,4.441c0,3.906,0.914,7.071,2.043,7.071
		c0.315,0,0.614-0.258,0.883-0.702c2.591,5.425,6.188,9.909,6.188,9.909s3.599-4.483,6.188-9.909
		c0.268,0.444,0.566,0.702,0.884,0.702c1.128,0,2.043-3.165,2.043-7.071C517.636,415.815,517.466,414.273,517.183,413.06z"/>
</g>
<g>
	<path fill="#902548" d="M625.571,244.151c-0.446-2.779-2.188-5.123-4.597-6.384c1.816-1.28,3.006-3.39,3.006-5.78
		c0-3.905-3.166-7.071-7.071-7.071s-7.071,3.166-7.071,7.071c0,2.391,1.189,4.5,3.006,5.78c-2.406,1.26-4.147,3.602-4.595,6.38
		c-0.283,1.215-0.454,2.758-0.454,4.441c0,3.905,0.914,7.071,2.043,7.071c0.316,0,0.615-0.257,0.883-0.702
		c2.592,5.425,6.188,9.91,6.188,9.91s3.598-4.485,6.188-9.91c0.269,0.445,0.566,0.702,0.884,0.702c1.128,0,2.043-3.166,2.043-7.071
		C626.024,246.907,625.854,245.365,625.571,244.151z"/>
</g>
<g>
	<path fill="#902548" d="M719.637,245.114c-0.446-2.779-2.188-5.123-4.596-6.384c1.816-1.28,3.006-3.39,3.006-5.78
		c0-3.905-3.166-7.071-7.072-7.071c-3.903,0-7.069,3.166-7.069,7.071c0,2.391,1.188,4.5,3.006,5.78
		c-2.406,1.26-4.148,3.602-4.597,6.381c-0.282,1.214-0.452,2.757-0.452,4.44c0,3.905,0.914,7.071,2.043,7.071
		c0.315,0,0.614-0.257,0.883-0.702c2.59,5.425,6.188,9.909,6.188,9.909s3.599-4.483,6.188-9.909
		c0.268,0.445,0.565,0.702,0.885,0.702c1.127,0,2.043-3.166,2.043-7.071C720.09,247.87,719.92,246.328,719.637,245.114z"/>
</g>
<g>
	<path fill="#902548" d="M705.219,291.596c-0.445-2.779-2.188-5.123-4.596-6.384c1.816-1.28,3.006-3.39,3.006-5.78
		c0-3.904-3.166-7.071-7.07-7.071c-3.905,0-7.071,3.167-7.071,7.071c0,2.391,1.188,4.5,3.006,5.78
		c-2.406,1.26-4.148,3.602-4.595,6.379c-0.282,1.216-0.454,2.759-0.454,4.442c0,3.905,0.914,7.071,2.043,7.071
		c0.315,0,0.614-0.257,0.883-0.701c2.592,5.425,6.188,9.908,6.188,9.908s3.599-4.482,6.188-9.908
		c0.268,0.444,0.565,0.701,0.883,0.701c1.129,0,2.043-3.166,2.043-7.071C705.672,294.352,705.502,292.811,705.219,291.596z"/>
</g>
<g>
	<path fill="#902548" d="M809.295,254.647c-0.445-2.779-2.188-5.123-4.596-6.384c1.815-1.28,3.006-3.39,3.006-5.78
		c0-3.905-3.166-7.071-7.07-7.071c-3.906,0-7.072,3.166-7.072,7.071c0,2.391,1.189,4.5,3.007,5.78
		c-2.406,1.26-4.148,3.602-4.595,6.38c-0.283,1.215-0.455,2.758-0.455,4.441c0,3.905,0.914,7.071,2.043,7.071
		c0.316,0,0.615-0.257,0.884-0.702c2.592,5.425,6.188,9.909,6.188,9.909s3.598-4.483,6.188-9.909
		c0.268,0.445,0.565,0.702,0.883,0.702c1.129,0,2.043-3.166,2.043-7.071C809.749,257.403,809.579,255.861,809.295,254.647z"/>
</g>
<g>
	<path fill="#902548" d="M921.727,192.393c-0.444-2.779-2.188-5.122-4.596-6.385c1.816-1.279,3.006-3.388,3.006-5.779
		c0-3.905-3.166-7.071-7.07-7.071c-3.905,0-7.071,3.166-7.071,7.071c0,2.392,1.188,4.5,3.006,5.779
		c-2.406,1.261-4.148,3.604-4.594,6.381c-0.283,1.215-0.455,2.758-0.455,4.441c0,3.905,0.914,7.071,2.043,7.071
		c0.315,0,0.615-0.257,0.883-0.702c2.592,5.425,6.188,9.909,6.188,9.909s3.599-4.483,6.188-9.909
		c0.268,0.445,0.566,0.702,0.883,0.702c1.129,0,2.043-3.166,2.043-7.071C922.18,195.148,922.01,193.606,921.727,192.393z"/>
</g>
<g>
	<path fill="#902548" d="M900.061,256.001c-0.444-2.779-2.188-5.123-4.596-6.384c1.816-1.28,3.006-3.39,3.006-5.78
		c0-3.905-3.166-7.071-7.069-7.071c-3.906,0-7.072,3.166-7.072,7.071c0,2.391,1.188,4.5,3.006,5.78
		c-2.406,1.26-4.148,3.601-4.594,6.38c-0.283,1.215-0.455,2.758-0.455,4.441c0,3.905,0.914,7.071,2.043,7.071
		c0.315,0,0.615-0.257,0.883-0.702c2.592,5.425,6.189,9.908,6.189,9.908s3.598-4.482,6.188-9.908
		c0.267,0.445,0.566,0.702,0.883,0.702c1.129,0,2.043-3.166,2.043-7.071C900.514,258.757,900.344,257.215,900.061,256.001z"/>
</g>
<g>
	<path fill="#902548" d="M939.956,362.334c-0.445-2.779-2.188-5.123-4.596-6.384c1.815-1.28,3.006-3.39,3.006-5.78
		c0-3.904-3.166-7.07-7.07-7.07c-3.906,0-7.072,3.166-7.072,7.07c0,2.391,1.189,4.5,3.006,5.78c-2.405,1.26-4.147,3.602-4.594,6.38
		c-0.283,1.215-0.455,2.758-0.455,4.441c0,3.903,0.914,7.069,2.043,7.069c0.316,0,0.615-0.256,0.884-0.7
		c2.592,5.424,6.188,9.908,6.188,9.908s3.598-4.482,6.188-9.908c0.269,0.444,0.566,0.7,0.884,0.7c1.129,0,2.043-3.166,2.043-7.069
		C940.409,365.09,940.239,363.548,939.956,362.334z"/>
</g>
<g>
	<path fill="#902548" d="M1023.956,238.669c-0.445-2.78-2.188-5.124-4.596-6.385c1.815-1.28,3.006-3.39,3.006-5.78
		c0-3.905-3.166-7.071-7.07-7.071c-3.906,0-7.072,3.166-7.072,7.071c0,2.391,1.189,4.5,3.006,5.78
		c-2.405,1.261-4.147,3.602-4.594,6.38c-0.283,1.215-0.455,2.758-0.455,4.441c0,3.904,0.914,7.07,2.043,7.07
		c0.316,0,0.615-0.256,0.884-0.701c2.592,5.425,6.188,9.908,6.188,9.908s3.598-4.482,6.188-9.908
		c0.269,0.445,0.566,0.701,0.884,0.701c1.129,0,2.043-3.166,2.043-7.07C1024.409,241.424,1024.239,239.882,1023.956,238.669z"/>
</g>
<g>
	<path fill="#902548" d="M1098.29,342.357c-0.447-2.778-2.188-5.123-4.596-6.383c1.815-1.279,3.006-3.391,3.006-5.779
		c0-3.906-3.166-7.072-7.072-7.072c-3.904,0-7.069,3.166-7.069,7.072c0,2.39,1.188,4.5,3.006,5.779
		c-2.406,1.26-4.148,3.602-4.597,6.379c-0.282,1.215-0.452,2.758-0.452,4.441c0,3.905,0.913,7.072,2.043,7.072
		c0.315,0,0.614-0.258,0.882-0.703c2.591,5.425,6.188,9.909,6.188,9.909s3.599-4.483,6.188-9.909
		c0.268,0.445,0.565,0.703,0.885,0.703c1.127,0,2.043-3.167,2.043-7.072C1098.743,345.114,1098.573,343.572,1098.29,342.357z"/>
</g>
<g>
	<path fill="#902548" d="M1137.624,192.393c-0.447-2.779-2.188-5.122-4.596-6.385c1.815-1.279,3.006-3.388,3.006-5.779
		c0-3.905-3.166-7.071-7.072-7.071c-3.904,0-7.069,3.166-7.069,7.071c0,2.392,1.188,4.5,3.005,5.779
		c-2.405,1.261-4.147,3.604-4.596,6.381c-0.282,1.215-0.452,2.758-0.452,4.441c0,3.905,0.913,7.071,2.043,7.071
		c0.315,0,0.614-0.257,0.882-0.702c2.591,5.425,6.188,9.909,6.188,9.909s3.599-4.483,6.188-9.909
		c0.268,0.445,0.565,0.702,0.885,0.702c1.127,0,2.043-3.166,2.043-7.071C1138.077,195.148,1137.907,193.606,1137.624,192.393z"/>
</g>
<g>
	<path fill="#902548" d="M1232.624,227.531c-0.447-2.778-2.188-5.123-4.596-6.384c1.815-1.279,3.006-3.391,3.006-5.779
		c0-3.906-3.166-7.072-7.072-7.072c-3.904,0-7.069,3.166-7.069,7.072c0,2.389,1.188,4.5,3.005,5.779
		c-2.405,1.26-4.147,3.602-4.596,6.38c-0.282,1.215-0.452,2.758-0.452,4.44c0,3.906,0.913,7.072,2.043,7.072
		c0.315,0,0.614-0.257,0.882-0.702c2.591,5.425,6.188,9.909,6.188,9.909s3.599-4.483,6.188-9.909
		c0.268,0.445,0.565,0.702,0.885,0.702c1.127,0,2.043-3.166,2.043-7.072C1233.077,230.287,1232.907,228.745,1232.624,227.531z"/>
</g>
<g>
	<path fill="#902548" d="M773.622,332.479c-0.447-2.778-2.189-5.123-4.596-6.385c1.815-1.279,3.006-3.389,3.006-5.779
		c0-3.904-3.166-7.069-7.072-7.069c-3.904,0-7.07,3.165-7.07,7.069c0,2.392,1.189,4.5,3.006,5.779
		c-2.405,1.262-4.147,3.604-4.596,6.381c-0.283,1.215-0.453,2.758-0.453,4.441c0,3.904,0.914,7.07,2.043,7.07
		c0.316,0,0.615-0.256,0.882-0.701c2.592,5.425,6.188,9.91,6.188,9.91s3.598-4.484,6.188-9.91c0.268,0.445,0.565,0.701,0.885,0.701
		c1.127,0,2.043-3.165,2.043-7.07C774.075,335.234,773.905,333.691,773.622,332.479z"/>
</g>
<g>
	<path fill="#902548" d="M291.621,254.076c-0.446-2.78-2.188-5.124-4.596-6.385c1.816-1.279,3.006-3.39,3.006-5.779
		c0-3.906-3.166-7.072-7.071-7.072c-3.905,0-7.071,3.166-7.071,7.072c0,2.39,1.189,4.5,3.006,5.779
		c-2.406,1.261-4.148,3.602-4.595,6.38c-0.283,1.215-0.454,2.758-0.454,4.441c0,3.905,0.914,7.072,2.043,7.072
		c0.316,0,0.615-0.257,0.882-0.703c2.591,5.425,6.189,9.909,6.189,9.909s3.598-4.483,6.188-9.909
		c0.268,0.446,0.566,0.703,0.884,0.703c1.128,0,2.043-3.167,2.043-7.072C292.074,256.831,291.904,255.289,291.621,254.076z"/>
</g>
<g>
	<path fill="#902548" d="M238.154,371.721c-0.446-2.779-2.188-5.123-4.596-6.384c1.816-1.28,3.005-3.392,3.005-5.78
		c0-3.904-3.166-7.072-7.071-7.072c-3.905,0-7.071,3.168-7.071,7.072c0,2.391,1.189,4.5,3.006,5.78
		c-2.407,1.259-4.148,3.601-4.595,6.379c-0.283,1.216-0.454,2.759-0.454,4.441c0,3.905,0.914,7.071,2.043,7.071
		c0.316,0,0.615-0.258,0.883-0.701c2.591,5.425,6.188,9.908,6.188,9.908s3.598-4.483,6.188-9.908
		c0.268,0.443,0.566,0.701,0.883,0.701c1.128,0,2.043-3.166,2.043-7.071C238.607,374.477,238.438,372.934,238.154,371.721z"/>
</g>
<g>
	<path fill="#902548" d="M508.581,433.886l-0.118-0.221l295.002-158.17l0.049,0.015l59.74,18.256l28.209-17.234l0.055,0.142
		l10.902,29.062l67.275,20.558l45.518-67.011l0.035-0.015l113.896-46.369l-0.062,0.241l-39.367,150.092l-0.123-0.039
		l-119.793-36.606l-38.537,56.733l-0.084-0.227l-28.947-77.155l-38.94-11.9l-98.264,60.033l-0.132-0.213l98.074-59.918
		l-59.477-18.176L508.581,433.886z M902.532,306.03l28.795,76.75l38.223-56.271L902.532,306.03z M969.946,326.37l119.594,36.547
		l39.238-149.598l-113.4,46.166L969.946,326.37z M863.575,293.863l38.545,11.779l-10.783-28.739L863.575,293.863z"/>
</g>
</svg>
